<svg width="37" height="41" viewBox="0 0 37 41" fill="none" xmlns="http://www.w3.org/2000/svg">
<path fill-rule="evenodd" clip-rule="evenodd" d="M5.75391 9.45728V12.3835H3.25391V9.45728H5.75391Z" fill="white"/>
<path fill-rule="evenodd" clip-rule="evenodd" d="M10.0117 18.2361H15.2862L16.9853 21.1623H11.2036L9.63235 18.4563L10.0117 18.2361ZM5.75391 18.2361H3.25391V21.1623H5.75391V18.2361ZM30.7257 21.1623H33.2257V18.2361H20.0517C20.0298 18.2666 20.0085 18.2977 19.9879 18.3293L18.1403 21.1623H26.9723L30.7257 20.3223V21.1623Z" fill="white"/>
<path fill-rule="evenodd" clip-rule="evenodd" d="M5.75391 27.0149H3.25391V29.9412H5.75391V27.0149ZM30.7257 29.9412H33.2257V27.0149H30.7257V29.9412ZM20.2927 27.0149L19.4998 28.2308C19.0257 28.9577 18.2085 29.3868 17.341 29.3643C16.4734 29.3418 15.6796 28.871 15.2438 28.1205L14.6018 27.0149H20.2927Z" fill="white"/>
<path fill-rule="evenodd" clip-rule="evenodd" d="M4.12708 0.678467C2.74636 0.678467 1.62708 1.79775 1.62708 3.17847V18.2361H4.12708V21.1623H1.62708V27.0149H3.3136V29.9411H1.62708V38.2936C1.62708 39.6743 2.74636 40.7936 4.12708 40.7936H34.0988C35.4795 40.7936 36.5988 39.6743 36.5988 38.2936V19.7009C36.5988 18.942 36.2541 18.2241 35.6617 17.7496C35.0693 17.2752 34.2935 17.0955 33.5528 17.2613L29.1972 18.2361H31.5988V21.1623H29.0988V20.3223L25.3454 21.1623H20.6438L18.4025 24.5991L14.8295 18.4456L14.0454 18.9008L15.3585 21.1623H10.6252L14.0234 27.0149H17.8524L17.0595 28.2308C16.6719 28.825 16.0552 29.2201 15.3691 29.3323L16.1169 30.6204C16.5527 31.3709 17.3466 31.8417 18.2141 31.8642C19.0817 31.8867 19.8989 31.4576 20.3729 30.7307L24.4936 24.4124L31.5988 22.8223V35.7936H6.62708V14.8835H4.12708V11.9572H6.62708V5.67847H27.0185V8.18574H32.0185V3.17847C32.0185 1.79775 30.8992 0.678467 29.5185 0.678467H4.12708Z" fill="white"/>
<path fill-rule="evenodd" clip-rule="evenodd" d="M4.12695 9.45728V12.3835H1.62695V9.45728H4.12695Z" fill="white"/>
<path fill-rule="evenodd" clip-rule="evenodd" d="M8.38473 18.2361H13.6593L15.3584 21.1623H9.57663L8.0054 18.4563L8.38473 18.2361ZM4.12695 18.2361H1.62695V21.1623H4.12695V18.2361ZM29.0987 21.1623H31.5987V18.2361H18.4248C18.4029 18.2666 18.3816 18.2977 18.3609 18.3293L16.5133 21.1623H25.3453L29.0987 20.3223V21.1623Z" fill="white"/>
<path fill-rule="evenodd" clip-rule="evenodd" d="M4.12695 27.0149H1.62695V29.9412H4.12695V27.0149ZM29.0987 29.9412H31.5987V27.0149H29.0987V29.9412ZM18.6658 27.0149L17.8728 28.2308C17.3987 28.9577 16.5816 29.3868 15.714 29.3643C14.8464 29.3418 14.0526 28.871 13.6168 28.1205L12.9749 27.0149H18.6658Z" fill="white"/>
<path fill-rule="evenodd" clip-rule="evenodd" d="M2.5 0.678467C1.11929 0.678467 0 1.79775 0 3.17847V18.2361H2.5V21.1623H0V27.0149H2.5V29.9411H0V38.2936C0 39.6743 1.11929 40.7936 2.5 40.7936H32.4718C33.8525 40.7936 34.9718 39.6743 34.9718 38.2936V19.7009C34.9718 18.942 34.627 18.2241 34.0346 17.7496C33.4422 17.2752 32.6664 17.0955 31.9258 17.2613L27.5701 18.2361H29.9718V21.1623H27.4718V20.3223L23.7184 21.1623H19.0167L16.7754 24.5991L13.2024 18.4456L12.4183 18.9008L13.7314 21.1623H8.9981L12.3963 27.0149H17.0388L16.2459 28.2308C15.7718 28.9577 14.9546 29.3867 14.0871 29.3643C13.9702 29.3612 13.8548 29.3501 13.7413 29.3312L14.4899 30.6204C14.9257 31.3709 15.7195 31.8417 16.5871 31.8642C17.4546 31.8867 18.2718 31.4576 18.7459 30.7307L22.8665 24.4124L29.9718 22.8223V27.0149V29.9411V35.7936H5V14.8835H2.5V11.9572H5V5.67847H25.3915V8.18574H30.3915V3.17847C30.3915 1.79775 29.2722 0.678467 27.8915 0.678467H2.5Z" fill="white"/>
<path fill-rule="evenodd" clip-rule="evenodd" d="M5.75391 9.45728V12.3835H3.25391V9.45728H5.75391Z" fill="#FF5ABE" style="mix-blend-mode:multiply"/>
<path fill-rule="evenodd" clip-rule="evenodd" d="M10.0117 18.2361H15.2862L16.9853 21.1623H11.2036L9.63235 18.4563L10.0117 18.2361ZM5.75391 18.2361H3.25391V21.1623H5.75391V18.2361ZM30.7257 21.1623H33.2257V18.2361H20.0517C20.0298 18.2666 20.0085 18.2977 19.9879 18.3293L18.1403 21.1623H26.9723L30.7257 20.3223V21.1623Z" fill="#FF5ABE" style="mix-blend-mode:multiply"/>
<path fill-rule="evenodd" clip-rule="evenodd" d="M5.75391 27.0149H3.25391V29.9412H5.75391V27.0149ZM30.7257 29.9412H33.2257V27.0149H30.7257V29.9412ZM20.2927 27.0149L19.4998 28.2308C19.0257 28.9577 18.2085 29.3868 17.341 29.3643C16.4734 29.3418 15.6796 28.871 15.2438 28.1205L14.6018 27.0149H20.2927Z" fill="#FF5ABE" style="mix-blend-mode:multiply"/>
<path fill-rule="evenodd" clip-rule="evenodd" d="M4.12708 0.678467C2.74636 0.678467 1.62708 1.79775 1.62708 3.17847V18.2361H4.12708V21.1623H1.62708V27.0149H3.3136V29.9411H1.62708V38.2936C1.62708 39.6743 2.74636 40.7936 4.12708 40.7936H34.0988C35.4795 40.7936 36.5988 39.6743 36.5988 38.2936V19.7009C36.5988 18.942 36.2541 18.2241 35.6617 17.7496C35.0693 17.2752 34.2935 17.0955 33.5528 17.2613L29.1972 18.2361H31.5988V21.1623H29.0988V20.3223L25.3454 21.1623H20.6438L18.4025 24.5991L14.8295 18.4456L14.0454 18.9008L15.3585 21.1623H10.6252L14.0234 27.0149H17.8524L17.0595 28.2308C16.6719 28.825 16.0552 29.2201 15.3691 29.3323L16.1169 30.6204C16.5527 31.3709 17.3466 31.8417 18.2141 31.8642C19.0817 31.8867 19.8989 31.4576 20.3729 30.7307L24.4936 24.4124L31.5988 22.8223V35.7936H6.62708V14.8835H4.12708V11.9572H6.62708V5.67847H27.0185V8.18574H32.0185V3.17847C32.0185 1.79775 30.8992 0.678467 29.5185 0.678467H4.12708Z" fill="#FF5ABE" style="mix-blend-mode:multiply"/>
<path fill-rule="evenodd" clip-rule="evenodd" d="M4.12695 9.45728V12.3835H1.62695V9.45728H4.12695Z" fill="#4DE6FF" style="mix-blend-mode:multiply"/>
<path fill-rule="evenodd" clip-rule="evenodd" d="M8.38473 18.2361H13.6593L15.3584 21.1623H9.57663L8.0054 18.4563L8.38473 18.2361ZM4.12695 18.2361H1.62695V21.1623H4.12695V18.2361ZM29.0987 21.1623H31.5987V18.2361H18.4248C18.4029 18.2666 18.3816 18.2977 18.3609 18.3293L16.5133 21.1623H25.3453L29.0987 20.3223V21.1623Z" fill="#4DE6FF" style="mix-blend-mode:multiply"/>
<path fill-rule="evenodd" clip-rule="evenodd" d="M4.12695 27.0149H1.62695V29.9412H4.12695V27.0149ZM29.0987 29.9412H31.5987V27.0149H29.0987V29.9412ZM18.6658 27.0149L17.8728 28.2308C17.3987 28.9577 16.5816 29.3868 15.714 29.3643C14.8464 29.3418 14.0526 28.871 13.6168 28.1205L12.9749 27.0149H18.6658Z" fill="#4DE6FF" style="mix-blend-mode:multiply"/>
<path fill-rule="evenodd" clip-rule="evenodd" d="M2.5 0.678467C1.11929 0.678467 0 1.79775 0 3.17847V18.2361H2.5V21.1623H0V27.0149H2.5V29.9411H0V38.2936C0 39.6743 1.11929 40.7936 2.5 40.7936H32.4718C33.8525 40.7936 34.9718 39.6743 34.9718 38.2936V19.7009C34.9718 18.942 34.627 18.2241 34.0346 17.7496C33.4422 17.2752 32.6664 17.0955 31.9258 17.2613L27.5701 18.2361H29.9718V21.1623H27.4718V20.3223L23.7184 21.1623H19.0167L16.7754 24.5991L13.2024 18.4456L12.4183 18.9008L13.7314 21.1623H8.9981L12.3963 27.0149H17.0388L16.2459 28.2308C15.7718 28.9577 14.9546 29.3867 14.0871 29.3643C13.9702 29.3612 13.8548 29.3501 13.7413 29.3312L14.4899 30.6204C14.9257 31.3709 15.7195 31.8417 16.5871 31.8642C17.4546 31.8867 18.2718 31.4576 18.7459 30.7307L22.8665 24.4124L29.9718 22.8223V27.0149V29.9411V35.7936H5V14.8835H2.5V11.9572H5V5.67847H25.3915V8.18574H30.3915V3.17847C30.3915 1.79775 29.2722 0.678467 27.8915 0.678467H2.5Z" fill="#4DE6FF" style="mix-blend-mode:multiply"/>
</svg>
